<svg width="36" height="36" viewBox="0 0 36 36" fill="none" xmlns="http://www.w3.org/2000/svg">
<path d="M26.3611 12.0729C28.9121 11.2705 31.4631 10.5045 33.9787 9.70212C34.0496 9.81154 34.1204 9.95744 34.1559 10.0669C33.7661 10.3951 33.3764 10.7599 32.9512 11.0517C30.1522 12.9848 27.3885 14.9909 24.5186 16.7781C22.7825 17.8359 22.2865 19.1489 22.7826 21.0456C27.7075 21.3374 32.4906 18.8936 32.2072 16.1945C32.3135 16.1581 32.4197 16.0486 32.4906 16.0851C33.837 16.6687 35.9274 16.7052 35.9982 18.6383C36.0691 20.7538 33.9787 21.0821 32.4906 21.3374C28.7349 22.0304 24.9084 22.3951 21.1173 22.8693C20.267 22.9787 19.3812 22.8693 18.5309 23.1611C19.7709 23.1611 21.011 23.1611 22.3219 23.1611C22.3219 25.0213 22.3219 26.7356 22.3219 28.4134C22.1802 28.5228 22.0031 28.5957 21.8613 28.7052C20.4087 27.0638 18.9915 25.386 17.2908 23.4529C14.1374 27.6839 10.9841 31.8419 7.83072 36C7.689 35.8906 7.54729 35.8176 7.40557 35.7082C9.17711 32.1702 10.9487 28.6322 12.7202 25.0942C12.5785 24.9483 12.4367 24.8024 12.295 24.693C8.99993 26.5897 5.70488 28.4863 2.37438 30.383C2.26809 30.2371 2.16179 30.1277 2.0555 29.9818C4.96083 27.465 7.9016 24.9848 10.9487 22.3587C9.99202 22.0669 9.21254 21.848 8.46849 21.5927C8.46849 21.4833 8.50392 21.3739 8.50392 21.2644C9.77943 21.3739 11.0904 21.4833 12.4013 21.5927C12.7202 21.1185 13.0391 20.6079 13.4642 19.9514C11.9407 18.8936 10.488 17.8723 8.57476 16.4863C10.8423 15.9392 12.6139 15.5015 14.5272 15.0274C9.85029 14.1885 3.89791 16.924 4.14593 19.769C3.82705 19.769 3.50817 19.8784 3.26016 19.769C1.91378 19.2219 0.0713748 19.003 0.000513119 17.1429C-0.0349177 15.3191 1.77206 15.0274 3.083 14.5897C7.72444 12.9483 12.5784 12.766 17.4325 12.9483C18.7434 12.9848 19.4166 12.5471 19.9835 11.3435C21.4362 8.42552 23.0306 5.58056 24.5541 2.6991C24.6958 2.77205 24.873 2.80852 25.0147 2.88147C24.6249 5.14287 24.1998 7.40425 23.81 9.66565C23.9517 9.77507 24.0935 9.88449 24.2352 9.95744C27.4594 6.63829 30.7191 3.31915 33.9433 0C34.0496 0.109422 34.1913 0.218841 34.2976 0.291789C31.5694 4.0851 28.8412 7.84195 26.0776 11.6353C26.1485 11.7447 26.2548 11.8906 26.3611 12.0729Z" fill="#FFFF00"/>
</svg>
