<svg width="630" height="61" viewBox="0 0 630 61" fill="none" xmlns="http://www.w3.org/2000/svg">
<path d="M225.984 55.6424C224.109 54.2826 229.046 54.7659 229.174 54.2666C229.318 53.6824 227.171 52.8272 229.19 51.9295C223.484 52.6678 219.22 51.9401 214.026 51.9029C197.676 51.7754 179.884 52.0463 165.008 52.2004C154.365 52.3119 143.673 52.6572 132.997 52.4553L134.616 51.4036L100.938 51.9348L102.67 53.4964L120.158 52.9971L113.762 54.58C119.148 54.8775 128.253 53.7036 131.378 55.6424C122.29 56.1629 112.592 55.8655 103.535 56.2479C90.1507 56.811 38.7442 61.5119 31.5149 60.9541C30.3607 60.8638 30.5371 60.0564 29.1906 59.9343C25.9046 59.6368 8.76905 59.0578 7.95155 58.8294C6.89361 57.0181 11.3338 58.3461 15.2129 57.8308C17.1685 57.5705 19.5248 57.3103 19.1882 56.4444C12.1352 56.9491 12.7924 53.3955 10.7727 52.5828C9.76288 52.1738 6.44478 52.2004 4.74566 51.6479C3.68771 51.3027 3.35109 50.5325 2.42138 49.996C2.02065 49.7676 0.0810814 49.7888 0.11314 49.5551C0.305494 48.6149 3.11065 47.218 3.12668 45.8103C3.14271 44.0097 -0.0311247 41.5875 1.45962 39.5266L11.0132 37.2478L7.91949 32.8019L3.92815 33.8536C-4.9682 31.1393 8.38435 26.3003 5.56316 24.3138C4.4411 23.5276 0.177259 23.177 0.000934531 21.9341C-0.0631833 21.5304 3.1908 18.0671 3.97624 17.4085C14.0588 8.91502 60.1114 3.73076 85.7105 3.06148C157.154 1.20237 227.619 0.363114 299.047 3.52891L346.157 2.51967L340.563 3.5767C337.95 4.29378 342.487 4.15567 343.801 4.13443C348.321 4.05475 352.313 3.61389 356.512 3.55546C388.475 3.12521 420.71 2.77465 452.721 1.97258C474.008 1.4414 508.648 -1.48007 529.262 0.958015C530.352 1.0855 530.4 1.86101 531.65 1.95662C536.748 2.34438 544.618 2.07881 550.164 2.63654C552.873 2.90744 555.021 4.42127 559.349 4.10787C559.734 5.03212 555.71 4.60717 553.771 4.63373C549.764 4.68685 545.724 4.59124 541.733 4.63905L556.159 7.81549L508.888 7.82609L485.646 9.94019C492.602 9.05844 549.812 7.9217 549.731 10.2111L532.131 12.5961C551.96 11.5337 571.756 12.1977 591.424 13.1378C591.729 14.0461 585.91 13.7168 584.147 13.6903C576.949 13.5787 569.945 12.7873 562.587 13.1378C562.218 14.0833 565.777 13.5415 567.861 13.7646C578.536 14.9332 552.569 15.815 550.998 15.9424C549.427 16.0699 546.173 16.0912 546.542 16.8454C551.046 16.8083 555.63 16.9357 560.151 16.8454C575.058 16.548 593.508 15.151 608.319 15.2307C610.82 15.2466 613.32 15.4166 613.865 16.3143L599.455 17.3766L615.468 17.9078L575.411 20.0484C575.026 20.9727 579.049 20.5477 580.989 20.5743C585.525 20.6327 590.11 20.5318 594.63 20.5796L578.617 22.9646L589.821 24.2819C574.465 23.5489 565.777 22.5502 551.366 25.3548C553.354 27.4689 568.342 25.8488 570.586 26.4119L565.793 28.5313C583.217 28.9403 600.032 27.2086 617.071 26.4172L593.027 29.0677L625.887 29.0677C626.448 29.0677 628.26 29.7636 629.895 29.6042C630.488 29.8645 628.436 30.4222 627.138 30.5391C614.058 31.7395 597.066 30.7516 583.425 32.2601L605.193 33.8058L628.308 33.8536C626.384 35.4949 621.816 35.5959 617.087 35.4471L623.483 37.03C614.218 37.03 608.512 35.6224 598.782 36.0208C596.361 36.1164 589.196 36.6688 588.234 37.5612C592.097 38.0074 605.225 36.4829 604.248 38.6289L567.38 39.6965C567.011 40.6261 571.019 40.1958 572.958 40.2224C583.618 40.3818 593.764 39.6222 604.232 40.2277L592.129 42.3418C590.815 42.9101 597.259 43.9034 593.059 44.7533C591.264 45.1198 567.476 45.3376 565.264 44.918C562.779 44.4399 563.517 43.5157 560.215 43.3669C551.895 43.0004 550.004 43.9565 543.993 44.4293C537.982 44.902 530.721 43.8928 530.496 47.1223C535.016 47.1702 539.601 47.0639 544.121 47.1223C546.59 47.1542 550.469 46.623 549.699 47.9085L520.862 50.3094L524.068 51.8923C513.393 51.9348 501.819 52.0357 491.24 52.4341C444.322 54.2029 400.417 53.5177 353.435 53.4699C331.779 53.4486 310.091 53.5283 288.451 53.4964C287.329 55.7221 302.301 53.7089 304.465 55.6158L225.92 55.6158L225.984 55.6424ZM264.439 11.5603L195.528 10.4979L209.153 11.5496L250.83 12.6598L264.439 11.5549V11.5603ZM342.983 49.7995C317.577 49.5551 292.25 49.3586 266.795 49.2895C260.864 49.2736 254.725 48.2431 248.41 49.5286C248.41 50.3147 291.994 50.2616 295.68 50.3359C302.317 50.4687 309.354 51.2655 316.471 51.4142C322.53 51.5417 342.454 52.2588 342.983 49.7995ZM376.661 48.7477L380.685 48.2166L379.082 47.1648L291.705 47.1542C291.369 47.9085 296.113 47.9828 297.748 48.0625C320.334 49.2045 346.879 48.2378 367.765 49.3002C371.243 49.4755 374.898 50.9415 379.867 50.3306C380.669 49.5498 373.6 49.9323 376.677 48.7531L376.661 48.7477ZM464.807 6.23789L406.284 8.26697C386.183 6.85936 359.734 7.49147 339.008 8.37322C333.799 8.59631 325.944 8.71316 323.764 10.4873C334.664 10.3757 345.708 10.6573 356.608 10.4873C382.865 10.073 439.513 9.12748 462.932 6.94436C471.764 6.12104 476.365 3.4386 488.868 4.64436C482.712 2.15316 470.85 4.18756 463.204 4.655L464.823 6.23789H464.807Z" fill="#FF2400"/>
</svg>
