<svg width="127" height="36" viewBox="0 0 127 36" fill="none" xmlns="http://www.w3.org/2000/svg">
<path d="M38.2783 2.23865L39.1044 3.23257C61.8633 0.144102 85.304 0.368721 108.05 3.40665C108.725 3.4965 110.502 3.63127 110.397 4.47358L77.3178 2.21057C63.1287 2.86757 48.9004 3.29996 34.849 5.19235C24.1155 6.63551 13.4474 9.14559 2.87124 11.2233L7.35614 11.5995L13.3557 11.2177L11.3952 12.8967L15.9784 13.1831L1.55987 16.2715L3.35645 17.2486L9.42154 17.9449C5.84806 18.2538 2.69421 18.8939 1.55332 22.1509L4.17606 23.5603C3.41546 23.375 -1.09566 23.9983 0.248499 25.2449C0.851729 25.8009 7.17254 25.4639 5.48743 26.9296L0.248499 28.9006C3.86133 30.4167 7.45449 31.3826 11.3886 30.31L3.52693 34.7911L17.2898 33.6793L14.0179 35.3639C13.8409 36.2567 14.9359 35.9647 15.6374 35.9142C24.3515 35.3134 32.8951 33.2581 41.5567 32.5506L40.8944 33.6624C67.2923 29.58 94.2869 30.5178 120.888 33.1009C120.816 31.9666 118.967 33.157 119.59 31.4275L120.724 31.3264L120.226 30.3044L122.199 29.4677L116.961 26.3793C118.613 25.4639 124.258 27.8786 124.822 27.4911C126.048 26.6544 120.049 24.5879 120.895 23.0044C121.15 22.8135 125.55 24.1387 126.789 22.9932C128.179 21.7129 122.239 20.9155 122.213 19.9159L126.179 17.608C126.416 16.0638 125.452 15.199 124.167 14.2949L125.471 13.4582L121.544 13.447L126.127 11.7624C125.019 10.3978 122.822 7.91582 123.511 6.72535L112.358 6.14697L114.967 4.18719C114.456 3.6425 113.813 3.26627 113.033 3.04727C109.473 2.04211 101.08 1.48619 96.9425 1.10434C77.403 -0.686973 57.6603 -0.288281 38.2652 2.2218L38.2783 2.23865Z" fill="#FF2400"/>
</svg>
