<svg width="128" height="35" viewBox="0 0 128 35" fill="none" xmlns="http://www.w3.org/2000/svg">
<path d="M18.8235 21.1393L13.6675 22.4189C10.6464 24.1617 6.86279 23.4837 3.57957 24.9638C3.46997 25.8137 4.65176 25.4269 5.18546 25.3792C10.1699 24.9113 12.6335 25.8137 17.1366 25.933C28.7923 26.2338 42.5351 23.6699 54.3052 23.0301C62.2392 22.5956 70.4306 22.9776 78.3885 22.5765L77.6833 23.5314C55.6347 22.82 33.9816 26.8688 12.1569 28.7882C12.1569 29.619 14.2393 29.3135 14.7969 29.2848C17.0889 29.1654 19.3333 28.454 21.6826 28.7882L15.4926 29.7432L16.255 30.6026L34.5534 30.2206L28.8399 32.1209L56.7211 29.7432H64.5742L48.3773 32.5984L77.4402 31.653C77.6737 33.0902 77.0924 32.4217 76.2823 32.6175C73.4518 33.3146 70.1399 33.5199 67.2332 34.0403L67.2046 35C67.9718 34.7231 68.7342 34.5082 69.5586 34.4939C76.7016 34.3554 83.9829 34.7326 91.0401 34.5703C91.9455 34.5512 91.4833 33.6345 92.4411 33.5199C94.4901 33.2764 93.8992 34.5035 94.8189 34.5703C99.6842 34.9379 107.375 33.1284 112.474 32.6127C114.804 32.3787 117.716 33.5915 118.702 31.1421L122.409 32.0779L126.06 28.0673C126.365 26.7782 123.52 27.2126 123.196 26.1575L124.02 25.8375L123.672 24.9733C125.94 25.403 124.554 22.3712 127.484 23.054C127.48 20.9484 124.287 21.6168 123.672 19.7165L126.536 20.4518L127.48 19.2438C126.407 19.0051 124.492 18.8236 124.625 17.3292L127.966 16.613L125.111 14.9324L125.431 13.9917L127.961 13.0273L125.107 11.5949L127.008 10.8882L124.63 8.26221L127.008 8.0187C126.088 6.24255 122.853 7.08766 122.724 4.91521L125.102 5.38792L124.625 3.96507C125.159 3.52103 128.39 5.64573 127.961 3.48761C126.331 3.74544 126.379 2.31306 125.126 1.79263C117.673 -1.28699 103.473 0.508263 95.3383 0.632402C72.6369 0.980948 49.8688 0.322061 27.234 3.05791C18.5471 4.10832 9.33118 5.41656 0.892006 7.70837C-0.32312 8.03782 -0.289764 8.35772 0.949181 8.2479C7.61571 7.63675 14.6491 6.05636 21.4539 5.38792C32.7998 4.28021 45.3561 3.31094 56.6925 2.97672C62.1916 2.81438 68.3911 2.77621 73.8759 3.00062C74.4572 3.02449 75.6485 2.63774 75.5341 3.4733C66.0562 3.29664 56.6068 4.6956 47.1764 5.38314C38.7563 5.99429 30.8318 6.18048 22.4069 6.82505C15.7356 7.33593 9.2168 8.6585 2.62653 9.68981C2.44069 10.9312 2.84573 10.6782 3.83213 10.6591C7.84919 10.597 12.2523 9.06912 16.4456 9.68981L10.4319 11.0554L1.68303 11.5997L1.20174 14.9324C4.85665 15.3477 8.46391 14.2496 12.0759 14.092C12.9337 14.0538 13.4531 13.8055 14.063 14.7032L3.87502 15.8729L3.57957 17.334C2.73613 16.8756 0.849121 16.3313 0.253471 17.5775C-0.142044 18.4035 1.05879 18.4465 1.54961 18.6327C4.86142 19.8932 9.93636 17.9165 13.5913 17.8162C12.6811 19.5971 10.4558 19.2534 8.83083 19.2486L13.1147 20.2035L9.78387 21.1536H18.8378L18.8235 21.1393ZM59.566 16.8422C64.3788 16.2883 70.1352 17.2528 75.0529 16.8422C75.1577 17.6825 73.9759 17.2958 73.3898 17.3197C68.2148 17.5345 63.0541 17.3531 57.8981 17.7923C57.7171 17.2862 59.3706 16.8661 59.5612 16.8422H59.566ZM62.1868 19.7117C66.1515 18.8332 69.5633 18.413 73.6185 19.2343L65.3033 20.2035L62.1868 19.7117Z" fill="#00DBFF"/>
</svg>
